<svg width="11" height="11" viewBox="0 0 11 11" fill="none" xmlns="http://www.w3.org/2000/svg">
    <path
        d="M9.91489 6.81383C9.60106 5.68883 8.5266 4.92819 7.35904 5C6.99468 5.02394 6.64628 5.11968 6.32713 5.29787C6.27128 5.32979 6.2234 5.33511 6.16489 5.30851C6.06117 5.26064 5.95213 5.2234 5.8484 5.18085C5.70745 5.12234 5.63298 5.01862 5.63298 4.86436C5.63298 4.79255 5.63298 4.72074 5.63298 4.64894C5.71277 4.61702 5.78989 4.59308 5.8617 4.55585C6.31117 4.32447 6.55585 3.95213 6.56915 3.44681C6.58245 3.00798 6.57713 2.56915 6.56915 2.13032C6.55585 1.06383 5.71543 0.140957 4.6516 0.018617C4.625 0.0159574 4.60106 0.00531915 4.57713 0H4.18617C3.98404 0.0505319 3.7766 0.0824468 3.58511 0.156915C2.75532 0.470745 2.19947 1.27394 2.19149 2.16223C2.18883 2.58511 2.18883 3.00798 2.19149 3.43085C2.19415 3.97606 2.5266 4.43883 3.04255 4.61702C3.10904 4.64096 3.1383 4.67021 3.13032 4.73936C3.125 4.77394 3.13032 4.81117 3.13032 4.84574C3.13032 5.03191 3.06649 5.125 2.89096 5.19415C2.30585 5.42819 1.72074 5.66489 1.13298 5.89362C0.824468 6.0133 0.545213 6.17021 0.337766 6.43351C0.167553 6.64894 0.0611702 6.89362 0.018617 7.16755C0.0159574 7.19415 0.00531915 7.21808 0 7.24202V8.52926C0.00531915 8.54521 0.0132979 8.55851 0.0159574 8.57447C0.111702 8.89362 0.332447 9.05851 0.664894 9.05851C2.25266 9.05851 3.83777 9.05851 5.42553 9.05585C5.51596 9.05585 5.57713 9.08245 5.64096 9.1516C6.36436 9.91489 7.24468 10.1888 8.25266 9.87234C9.23936 9.56383 9.80585 8.85904 9.9867 7.84308C9.99468 7.79787 10.0027 7.75532 10.0106 7.71011V7.28191C9.98138 7.125 9.95745 6.96543 9.91489 6.81383ZM5.18351 8.42819H0.625V8.33511C0.625 8.03723 0.625 7.7367 0.625 7.43617C0.625 7 0.845745 6.68085 1.25266 6.51862C1.87234 6.27128 2.49202 6.02394 3.1117 5.7766C3.54255 5.60372 3.75532 5.29255 3.75532 4.82979C3.75532 4.74202 3.7633 4.6516 3.75 4.56649C3.71277 4.31649 3.56915 4.14894 3.33511 4.05585C3.28192 4.03457 3.2234 4.02128 3.17021 3.99468C2.94947 3.88032 2.82447 3.69681 2.81915 3.44947C2.81117 3.00798 2.81117 2.56383 2.81915 2.12234C2.83511 1.33511 3.50266 0.662234 4.29255 0.625C5.10904 0.587766 5.82979 1.17287 5.92553 1.96543C5.94947 2.15426 5.94149 2.3484 5.94415 2.53989C5.94681 2.83245 5.94681 3.125 5.94415 3.41755C5.94149 3.71277 5.7766 3.93883 5.49468 4.03457C5.15692 4.14628 5.00532 4.35372 5.00798 4.71011C5.00798 4.84308 5.00798 4.97872 5.03723 5.10638C5.10372 5.39628 5.28192 5.60372 5.55053 5.73404C5.58777 5.75266 5.62766 5.76862 5.67819 5.78723C5.00266 6.57979 4.83511 7.45479 5.18351 8.42819ZM7.51064 9.36968C6.47606 9.36968 5.63298 8.52926 5.63298 7.49734C5.63298 6.46543 6.47606 5.62234 7.51064 5.62234C8.54521 5.62234 9.3883 6.46277 9.3883 7.49468C9.38564 8.5266 8.54255 9.36702 7.51064 9.36968Z"
        fill="white" />
    <path
        d="M8.76063 7.50026C8.75797 7.67047 8.62234 7.80611 8.4468 7.80611C8.24202 7.80877 8.03723 7.80611 7.8218 7.80611C7.8218 8.01356 7.8218 8.20505 7.8218 8.39653C7.8218 8.60132 7.69148 8.74494 7.50797 8.74228C7.32446 8.74228 7.1968 8.59866 7.1968 8.39122C7.1968 8.19973 7.1968 8.00824 7.1968 7.80611C7.00531 7.80611 6.8218 7.80611 6.63829 7.80611C6.59308 7.80611 6.54521 7.80611 6.50265 7.79813C6.3484 7.76356 6.24733 7.61994 6.26063 7.46568C6.27393 7.30877 6.40425 7.18643 6.56914 7.18377C6.77393 7.18111 6.97872 7.18377 7.1968 7.18377V6.75558C7.1968 6.68909 7.19414 6.62526 7.1968 6.56143C7.20212 6.38323 7.3351 6.25026 7.50531 6.2476C7.67819 6.24494 7.81914 6.38323 7.8218 6.56409C7.82446 6.76621 7.8218 6.96568 7.8218 7.17845C7.85106 7.18111 7.88031 7.18377 7.90691 7.18377C8.0851 7.18377 8.26595 7.18111 8.44414 7.18377C8.625 7.18643 8.76329 7.32473 8.76063 7.50026Z"
        fill="white" />
</svg>
