<svg width="10" height="10" viewBox="0 0 10 10" fill="none" xmlns="http://www.w3.org/2000/svg">
    <path
        d="M9.98308 9.61345C9.96011 9.25804 9.89846 8.90866 9.79088 8.57017C9.29409 7.00465 8.27632 5.9239 6.75208 5.31582C6.71824 5.30252 6.6856 5.28923 6.6433 5.2723C8.14577 4.20122 8.28115 2.14005 7.08328 0.891257C5.99903 -0.239062 4.15931 -0.334565 2.96748 0.840483C2.39333 1.40625 2.10323 2.10499 2.1129 2.91132C2.12378 3.89899 2.56134 4.67631 3.33615 5.25779C1.24985 6.15359 0.0797776 7.6913 0 10.0003H0.780853C0.788106 9.8504 0.788106 9.70049 0.805028 9.5518C0.927112 8.49885 1.37314 7.60547 2.15883 6.89222C3.11737 6.02303 4.24634 5.66398 5.53004 5.81751C6.64088 5.95049 7.54865 6.47274 8.2594 7.32864C8.89883 8.0987 9.21068 8.99691 9.21915 9.99909H10V9.70775C9.99396 9.67631 9.98549 9.64488 9.98308 9.61345ZM4.99819 4.99909C3.83658 4.99788 2.88529 4.04285 2.89133 2.88352C2.89738 1.72298 3.84504 0.77883 5.00181 0.781247C6.16463 0.782456 7.11471 1.73748 7.10867 2.89682C7.10262 4.05736 6.15496 5.00151 4.99819 4.99909Z"
        fill="white" />
</svg>
