<svg width="18" height="21" viewBox="0 0 18 21" fill="none" xmlns="http://www.w3.org/2000/svg">
    <path
        d="M17.8438 2.66314C17.8371 1.36688 17.0336 0.358925 15.7754 0.0706233C15.5661 0.0222062 15.3456 0.00459999 15.1318 0.00459999C11.3168 0.000198444 7.49966 -0.00200233 3.68474 0.00239922C2.14527 0.00459999 0.99967 1.1292 0.992918 2.63673C0.990668 3.03947 0.992918 3.44221 0.992918 3.86696C1.07619 3.87136 1.14822 3.87797 1.22249 3.87797C1.68388 3.88237 2.14527 3.86916 2.60441 3.89557C3.3674 3.93959 3.96383 4.58221 3.96383 5.32828C3.96608 6.08094 3.35839 6.72577 2.58641 6.76538C2.14077 6.78959 1.69288 6.77639 1.245 6.77859C1.16847 6.77859 1.0942 6.77859 1.00642 6.77859V9.04539C1.45656 9.04539 1.9022 9.04539 2.34783 9.04539C2.64492 9.04539 2.92851 9.085 3.19409 9.23025C3.76577 9.54276 4.06736 10.1832 3.92557 10.8148C3.79053 11.4288 3.24361 11.902 2.59541 11.935C2.14302 11.9592 1.68613 11.946 1.23374 11.9504C1.15947 11.9504 1.0852 11.9504 1.00192 11.9504V14.2172C1.0807 14.2172 1.15497 14.2172 1.22924 14.2172C1.69063 14.2216 2.15202 14.2084 2.61342 14.2326C3.36515 14.2722 3.97283 14.9281 3.96833 15.6719C3.96383 16.4114 3.36965 17.0606 2.62692 17.1024C2.17453 17.1288 1.71764 17.1156 1.26525 17.1222C1.18198 17.1222 1.0987 17.1222 0.990668 17.1222C1.03343 17.9211 0.864629 18.7156 1.22249 19.4617C1.62086 20.2936 2.28256 20.7975 3.20985 20.9626C3.24136 20.9692 3.27287 20.9868 3.30213 21H15.5099C15.843 20.8856 16.2053 20.8195 16.5069 20.6501C17.4297 20.1329 17.8506 19.3164 17.8506 18.2864V6.08754C17.8461 4.94534 17.8506 3.80534 17.8438 2.66314ZM7.36912 7.54886C7.40739 6.21299 8.59125 5.13461 9.98443 5.16982C11.3754 5.20283 12.4917 6.34944 12.4557 7.70952C12.4197 9.085 11.2606 10.1854 9.88089 10.1502C8.4202 10.115 7.32861 8.98376 7.36912 7.54886ZM13.8736 14.8466H5.96469C5.96469 14.3845 5.91743 13.9179 5.9737 13.4645C6.1515 11.9856 7.31511 10.9953 8.83657 10.9887C9.55679 10.9843 10.2748 10.9843 10.995 10.9887C12.6425 10.9997 13.8624 12.1903 13.8736 13.7991C13.8759 14.1446 13.8736 14.4923 13.8736 14.8466Z"
        fill="#FAF8FF" />
    <path
        d="M2.83862 6.05007C2.71483 6.10509 2.57079 6.1359 2.43574 6.1381C1.91358 6.14911 1.38917 6.14911 0.864764 6.14031C0.450637 6.1315 0.142293 5.90922 0.0365108 5.5659C-0.0625195 5.24459 0.0410122 4.87486 0.333602 4.6966C0.495651 4.59756 0.704965 4.54914 0.898525 4.52714C1.1461 4.49853 1.40043 4.52054 1.65251 4.52054V4.52274C1.92484 4.52274 2.19717 4.51173 2.46951 4.52494C2.90164 4.54474 3.21223 4.80443 3.28876 5.18737C3.35628 5.52849 3.16947 5.90482 2.83862 6.05007Z"
        fill="#FAF8FF" />
    <path
        d="M3.09507 16.1978C2.92176 16.4002 2.68544 16.4751 2.42436 16.4795C2.16553 16.4839 1.90895 16.4795 1.65012 16.4795V16.4729C1.35753 16.4729 1.06269 16.4905 0.772355 16.4685C0.340222 16.4355 0.0498834 16.1428 0.00712027 15.7334C-0.0311414 15.3879 0.196178 15.0336 0.542784 14.9169C0.646316 14.8817 0.761101 14.8619 0.871385 14.8597C1.39354 14.8531 1.91796 14.8509 2.44237 14.8575C2.80923 14.8619 3.09056 15.0182 3.23911 15.3549C3.36515 15.6608 3.30888 15.9469 3.09507 16.1978Z"
        fill="#FAF8FF" />
    <path
        d="M3.09286 11.0303C2.91956 11.2328 2.68323 11.3054 2.42215 11.3098C2.16332 11.3142 1.90675 11.3098 1.64792 11.3098V11.3054C1.36208 11.3054 1.07399 11.3208 0.790404 11.301C0.376277 11.2724 0.0859383 11.0149 0.0161669 10.6429C-0.049103 10.2886 0.128701 9.92549 0.464054 9.78024C0.587842 9.72742 0.731886 9.69441 0.866927 9.69221C1.39134 9.68341 1.91575 9.68341 2.43791 9.69001C2.80477 9.69441 3.08611 9.85067 3.23465 10.1874C3.36519 10.4933 3.30893 10.7772 3.09286 11.0303Z"
        fill="#FAF8FF" />
</svg>
