<svg width="79" height="79" viewBox="0 0 79 79" fill="none" xmlns="http://www.w3.org/2000/svg">
    <circle opacity="0.2" cx="39.5" cy="39.5" r="39.5" fill="#EB001B" />
    <path
        d="M57.5135 48.6682V49.85C57.4877 49.9369 57.4669 50.0239 57.4359 50.1109C57.2184 50.7427 57.0863 51.4206 56.7627 51.9961C55.6287 54.0144 53.837 54.9889 51.5094 54.9941C47.4653 55.0017 43.4211 54.9966 39.3795 54.9966C35.4182 54.9966 31.4543 55.0094 27.493 54.9915C24.9583 54.9813 23.0993 53.8455 22.0223 51.5613C21.7685 51.0266 21.6624 50.4229 21.4863 49.8525V48.7398C21.6443 47.182 22.522 45.9388 23.3246 44.6649C24.1712 43.3169 25.0127 41.9688 25.8567 40.6182C28.7151 36.0497 31.5734 31.4811 34.4266 26.91C35.1723 25.7154 36.1587 24.8073 37.5102 24.3495C40.265 23.4209 42.9784 24.375 44.5241 26.8281C47.4938 31.5476 50.4402 36.2799 53.3917 41.007C53.8733 41.7795 53.705 42.6211 52.9982 43.0406C52.2888 43.4627 51.4758 43.2299 50.989 42.4523C48.0504 37.7558 45.1118 33.0594 42.1809 28.3578C41.5855 27.4011 40.7621 26.823 39.6126 26.7821C38.5433 26.7437 37.65 27.1556 37.0545 28.0381C36.327 29.1175 35.6564 30.2328 34.9677 31.3353C31.6045 36.7096 28.2464 42.089 24.878 47.4634C24.1635 48.6042 24.0832 49.7451 24.834 50.8885C25.3674 51.6994 26.1493 52.1163 27.1176 52.2033C27.2005 52.211 27.2833 52.2135 27.3636 52.2135C35.4648 52.2135 43.5687 52.2161 51.67 52.211C53.0836 52.2084 54.2202 51.3182 54.5905 49.9855C54.7769 49.3205 54.6707 48.6861 54.4662 48.0415C54.2073 47.2255 54.6837 46.4504 55.5174 46.2662C56.2009 46.1153 56.9077 46.5195 57.1355 47.228C57.2935 47.6987 57.3919 48.1873 57.5135 48.6682Z"
        fill="#EB001B" />
    <path
        d="M40.9071 38.1518C40.9071 39.8427 40.9097 41.5335 40.9045 43.2243C40.9045 43.7794 40.6508 44.204 40.1511 44.4675C39.6773 44.7156 39.1983 44.6926 38.7478 44.4087C38.2844 44.1171 38.0902 43.6771 38.0902 43.1399C38.0928 41.5181 38.0902 39.8964 38.0902 38.2772C38.0902 36.5505 38.0824 34.8265 38.0928 33.0998C38.098 32.0741 39.0197 31.3988 39.9543 31.716C40.5447 31.918 40.902 32.4296 40.9045 33.1152C40.9097 34.7932 40.9071 36.4712 40.9071 38.1518Z"
        fill="#EB001B" />
    <path
        d="M40.9073 48.1232C40.9021 48.8829 40.2523 49.5122 39.4833 49.4994C38.7299 49.4892 38.1007 48.8599 38.0982 48.1155C38.0956 47.3558 38.7377 46.7214 39.5092 46.724C40.2808 46.7266 40.9125 47.3584 40.9073 48.1232Z"
        fill="#EB001B" />
</svg>
