<svg xmlns="http://www.w3.org/2000/svg" width="355.166" height="262.565" viewBox="0 0 355.166 262.565">
    <g id="Group_8162" data-name="Group 8162" transform="translate(1882.013 -1443.873)">
        <path id="Path_2071" data-name="Path 2071"
            d="M-1575.91,1448.24c-8.16-8.72-15.04-2.74-21.36,3.69-8,8.15-16.54,15.81-24.07,24.36-6.07,6.9-11.25,8.14-20.31,4.36-26.46-11.03-54.25-16.11-82.95-11.26-64.17,10.86-111.63,48.64-153.08,95.95-7.38,8.42-4.49,15.64,2.37,22.06,24.16,22.61,48.52,45.01,74.84,69.37-7.83,7.41-17.21,16.26-26.55,25.15-6.08,5.79-11.78,12.31-4.16,20.26,8.34,8.69,15.05,2.39,21.34-3.91q42.6-42.72,85.28-85.36,72.12-72.165,144.26-144.34C-1574.38,1462.65-1568.47,1456.2-1575.91,1448.24Zm-136.26,118.84c-13.3,13.15-26.11,26.8-39.92,41.03-16.61-29.27-12.83-57.17,7.9-76.53,20.16-18.83,47.12-21.25,73.91-4.46C-1684.63,1540.77-1698.64,1553.68-1712.17,1567.08Z" />
        <path id="Path_2072" data-name="Path 2072"
            d="M-1529.33,1584c-41.5,48.5-89.66,87.62-155.24,96.59-20.99,2.86-42.92-1.18-64.42-2.06-.59-1.85-1.19-3.71-1.78-5.57,12.43-12.33,24.62-24.93,37.51-36.77,2.31-2.12,7.48-1.35,11.35-1.52,32.12-1.43,56.43-26.04,58.02-58.4.23-4.61.85-10.47,3.69-13.48,16.62-17.59,33.96-34.51,53.62-54.23,20.01,20,39.53,38.76,57.84,58.64C-1525.93,1570.25-1526.35,1580.53-1529.33,1584Z" />
    </g>
</svg>
