<svg width="20" height="20" viewBox="0 0 20 20" fill="none" xmlns="http://www.w3.org/2000/svg">
    <path
        d="M16.2413 14.4596C16.0308 14.2542 15.7741 14.0847 15.5122 13.9461C14.8806 13.6123 14.1874 13.448 13.4891 13.3145C13.0424 13.2323 12.5956 13.1707 12.1284 13.0988C12.2619 12.8678 12.3851 12.647 12.5135 12.4262C13.3761 10.9114 14.208 9.38126 14.8498 7.75866C15.1168 7.09114 15.3736 6.41849 15.4249 5.69962C15.5944 3.31194 14.0231 1.02696 11.7022 0.277279C11.2914 0.143774 10.8549 0.0872914 10.4288 0H9.57125C9.52504 0.0102696 9.48396 0.0256739 9.43774 0.0308087C7.47626 0.277279 6.03338 1.27856 5.12452 3.02953C4.64185 3.96919 4.41592 4.98588 4.62645 6.03338C4.75482 6.68549 4.97561 7.32734 5.22722 7.94352C5.91528 9.67394 6.82927 11.2965 7.75867 12.9037C7.79461 12.9653 7.83056 13.0321 7.87163 13.1142C7.75867 13.1297 7.67651 13.1451 7.59436 13.1553C6.75739 13.2478 5.93582 13.4018 5.13993 13.6739C4.62131 13.8537 4.1181 14.0693 3.73299 14.4801C3.27086 14.9782 3.26059 15.6457 3.7484 16.1232C3.96919 16.3389 4.23107 16.5237 4.50835 16.6573C5.49423 17.1451 6.5674 17.3196 7.65084 17.4531C8.96534 17.6123 10.285 17.6226 11.6098 17.525C12.7035 17.448 13.7818 17.2888 14.8241 16.9397C15.3479 16.7651 15.846 16.5546 16.2465 16.154C16.7394 15.6508 16.7548 14.9628 16.2413 14.4596ZM6.59307 8.16431C6.35174 7.62516 6.14121 7.0706 5.94609 6.51605C5.53017 5.36072 5.73556 4.26701 6.3466 3.24519C7.24005 1.74069 9.0321 0.919127 10.6958 1.22721C12.5238 1.56611 13.8947 2.91143 14.2131 4.6932C14.249 4.90372 14.2644 5.11938 14.285 5.32991C14.2901 5.84852 14.1361 6.33119 13.9666 6.80873C13.4275 8.31836 12.6829 9.73556 11.9076 11.1322C11.3992 12.0411 10.8652 12.9294 10.3363 13.828C10.1361 14.172 9.88447 14.172 9.67908 13.828C8.55456 11.9897 7.47626 10.1309 6.59307 8.16431ZM15.4403 15.3376C15.2811 15.4352 15.1322 15.5481 14.9679 15.6252C14.3107 15.9435 13.6072 16.0924 12.8935 16.2054C11.0706 16.4878 9.23749 16.4929 7.4095 16.2465C6.58794 16.1335 5.78178 15.9795 5.02696 15.62C4.86778 15.543 4.72401 15.4352 4.51348 15.3017C4.73428 15.1682 4.89346 15.0501 5.07317 14.9679C5.78178 14.6393 6.54172 14.4852 7.30681 14.3774C7.66111 14.3261 8.01541 14.3004 8.37484 14.2542C8.50835 14.2388 8.59051 14.2798 8.65212 14.4031C8.84724 14.7779 9.13993 15.0603 9.55071 15.1887C10.2285 15.4044 10.9166 15.1374 11.3017 14.4852C11.4095 14.3055 11.5122 14.2336 11.7279 14.2542C12.7548 14.3671 13.7818 14.4955 14.7523 14.8858C14.9936 14.9833 15.2144 15.1322 15.4454 15.2555C15.4403 15.2811 15.4403 15.3068 15.4403 15.3376Z"
        fill="black" />
    <path
        d="M20 15.9743V16.4416C19.7587 17.5302 18.9422 18.0847 18.0334 18.5366C16.9397 19.086 15.7587 19.389 14.5623 19.6046C12.3286 20.0103 10.0745 20.0873 7.81515 19.9076C5.96149 19.7587 4.13864 19.4608 2.40822 18.7368C1.70989 18.4442 1.0475 18.0847 0.534021 17.5045C-0.169445 16.7035 -0.179715 15.7535 0.513481 14.9422C0.852378 14.5469 1.27343 14.249 1.73043 14.0128C2.0077 13.8691 2.34147 13.9769 2.49551 14.2388C2.64955 14.5058 2.57767 14.8344 2.31579 15.0141C2.095 15.1682 1.86393 15.2965 1.6534 15.4608C1.01669 15.9743 1.01669 16.4365 1.64827 16.9602C2.23364 17.4429 2.93197 17.7202 3.6457 17.9512C5.05777 18.4133 6.51605 18.6341 7.98973 18.7471C9.35559 18.8498 10.7214 18.8549 12.0873 18.742C13.8896 18.5931 15.6611 18.3107 17.335 17.5764C17.7612 17.3915 18.1617 17.1656 18.4955 16.8318C18.9422 16.3902 18.9474 16.0051 18.4801 15.5841C18.249 15.3787 17.982 15.2144 17.7202 15.0398C17.5096 14.896 17.3967 14.6701 17.4326 14.4442C17.4788 14.1977 17.6534 13.9974 17.905 13.9666C18.0231 13.9512 18.1618 13.9615 18.2593 14.018C18.7728 14.2798 19.2555 14.6033 19.579 15.086C19.7689 15.353 19.8665 15.6765 20 15.9743Z"
        fill="black" />
    <path
        d="M10.0077 2.88576C8.80103 2.88063 7.81515 3.85624 7.81002 5.05778C7.80488 6.26959 8.79076 7.2606 9.99744 7.2606C11.199 7.2606 12.1849 6.27986 12.1849 5.07832C12.19 3.87164 11.2144 2.8909 10.0077 2.88576ZM10.0026 6.08987C9.44288 6.08987 8.98588 5.63287 8.98075 5.07832C8.98075 4.51349 9.42748 4.06163 9.9923 4.06163C10.5571 4.06163 11.009 4.50836 11.0141 5.07318C11.0193 5.62774 10.5623 6.08987 10.0026 6.08987Z"
        fill="black" />
</svg>
