<svg width="15" height="20" viewBox="0 0 15 20" fill="none" xmlns="http://www.w3.org/2000/svg">
    <path
        d="M14.936 6.06813C14.5555 3.23464 12.4251 0.853231 9.64791 0.197389C9.27382 0.108246 8.88704 0.063674 8.50661 0H7.49212C7.44773 0.0127348 7.40969 0.0254696 7.36531 0.031837C6.92781 0.114613 6.47762 0.165552 6.0528 0.280166C3.14882 1.09519 1.05009 3.84591 0.999363 6.86406C0.980341 7.94651 1.20226 8.9844 1.55733 9.99682C2.12799 11.6078 2.95226 13.0914 3.89701 14.4986C5.03831 16.205 6.224 17.8797 7.39701 19.5606C7.51748 19.7262 7.69502 19.8535 7.84085 20H8.15154C8.26567 19.9109 8.40516 19.8344 8.48759 19.7198C9.60987 18.1216 10.7385 16.5234 11.8354 14.9061C12.8119 13.4607 13.6932 11.9643 14.3146 10.3279C14.8408 8.95256 15.1389 7.55173 14.936 6.06813ZM13.3128 9.68481C12.7485 11.2448 11.9305 12.6648 11.0111 14.0337C10.0474 15.46 9.0519 16.8672 8.06911 18.2808C8.05009 18.3063 8.03107 18.3254 8.0057 18.3572C7.98034 18.3317 7.96132 18.3126 7.94864 18.2935C6.79465 16.6189 5.62165 14.957 4.5057 13.2569C3.70045 12.0408 3.03469 10.7482 2.57817 9.35371C2.15335 8.05476 2.01386 6.74308 2.40063 5.39955C3.05371 3.12003 5.08904 1.41356 7.44139 1.19707C10.599 0.910538 13.3762 3.12639 13.7947 6.27189C13.9468 7.45622 13.7122 8.58325 13.3128 9.68481Z"
        fill="black" />
    <path
        d="M8.0127 3.51467C6.08516 3.5083 4.50636 5.08741 4.50002 7.0231C4.49368 8.95879 6.06614 10.5443 7.99368 10.5506C9.92121 10.557 11.5 8.9779 11.5064 7.04221C11.5064 5.10015 9.94024 3.52104 8.0127 3.51467ZM8.00002 9.37904C6.71922 9.37904 5.66669 8.31569 5.66669 7.02947C5.66669 5.74962 6.71922 4.69264 7.99368 4.69264C9.28082 4.69264 10.3334 5.74326 10.3334 7.03584C10.3397 8.32205 9.28716 9.37904 8.00002 9.37904Z"
        fill="black" />
</svg>
