<svg xmlns="http://www.w3.org/2000/svg" width="383.127" height="383.117" viewBox="0 0 383.127 383.117">
    <g id="Group_4912" data-name="Group 4912" transform="translate(-2779.481 6492.147)">
        <path id="Path_1675" data-name="Path 1675"
            d="M2829.636-6109.031c-2.891-1.511-6.17-1.374-9.242-2.144-24.973-6.256-40.89-26.444-40.891-52.091q0-66.593.005-133.184c0-1.37.073-2.739.112-4.108,1.282-1.288,2.952-1.212,4.558-1.219,10.34-.048,20.68-.072,31.019,0,4.751.034,5.073.436,5.073,5.1q0,61.1.013,122.207a11.181,11.181,0,0,0,.257,4.073c2.829,14.114,10.26,20.224,24.641,20.227,33.654.008,67.308-.066,100.962.056,8.774.032,15.306,4.349,18.795,12.387,3.42,7.88,2.13,15.4-3.582,21.889-2.922,3.319-6.5,5.783-11.166,6.088-1.3.624-2.689.311-4.032.312q-27.906.034-55.812.016h-48.831c-2.457.208-4.962-.445-7.39.386Z"
            fill="#48C4DE" />
        <path id="Path_1676" data-name="Path 1676"
            d="M3162.609-6294.6c-2.816,8.874-9.413,14.906-15.734,21.208q-44.491,44.357-88.874,88.822c-5.9,5.9-12.738,9.619-21.376,8.323-12.76-1.913-19.353-12.551-15.685-24.948a27.833,27.833,0,0,1,7.4-11.9q28.461-28.392,56.857-56.847a16.453,16.453,0,0,0,2.668-3.089,4.4,4.4,0,0,0-3.3-6.714,30.431,30.431,0,0,0-4.107-.1q-87.132-.007-174.265,0c-8.091,0-15.649-1.455-21.446-7.715-3.391-3.662-5.6-7.848-5.043-13.064,1.948-1.542,4.265-1.177,6.476-1.179q34.029-.039,68.057-.016,100.589,0,201.178.023c2.441,0,5.031-.545,7.2,1.206Z"
            fill="#48C4DE" />
        <path id="Path_1677" data-name="Path 1677"
            d="M3162.609-6300.581l-282.914-.034c.115-10.643,9.081-19.458,20.578-20.188,1.864-.118,3.739-.091,5.609-.091q87.163-.006,174.327-.008a21.876,21.876,0,0,0,4.1-.149c4.173-.807,5.585-4.986,2.836-8.24-.722-.855-1.557-1.615-2.35-2.408q-28.042-28.036-56.1-56.061c-4.839-4.826-8.177-10.32-8.448-17.353-.532-13.84,10.938-22.881,24.333-19.185a28.5,28.5,0,0,1,12.79,7.407q48.684,48.658,97.378,97.308c4.121,4.108,6.093,9.214,7.856,14.513Z"
            fill="#48C4DE" />
        <path id="Path_1678" data-name="Path 1678"
            d="M2890.241-6109.776l59.949.031a1.386,1.386,0,0,0-.085.714h-59.861q-.367-.248-.246-.5T2890.241-6109.776Z"
            fill="#48C4DE" />
        <path id="Path_1679" data-name="Path 1679"
            d="M2890.241-6109.776c0,.248,0,.5,0,.745h-49.385c-.244-.161-.327-.324-.247-.488s.159-.248.24-.248Z"
            fill="#48C4DE" />
        <path id="Path_1680" data-name="Path 1680"
            d="M2840.852-6109.767c0,.246.007.491.007.736h-6.734C2836.229-6110.539,2838.618-6109.449,2840.852-6109.767Z"
            fill="#48C4DE" />
        <path id="Path_1681" data-name="Path 1681"
            d="M2820.54-6170.392c-1.149-1.431-.628-3.12-.63-4.683q-.048-60.5.053-121c.011-3.534-.825-4.673-4.493-4.6-11.946.24-23.9.1-35.85.113-.039-15.332-.1-30.664-.112-46q-.027-44.7.015-89.389c.039-16.571,5.077-31.154,17.916-42.295,10.612-9.208,23.315-13.544,37.112-13.668,37.4-.337,74.8-.249,112.2-.163,11.018.026,19.791,9.235,19.854,20.221.067,11.466-8.683,20.368-20.635,20.666-8.473.212-16.955.051-25.432.052-25.059,0-50.125.341-75.175-.122-16.108-.3-25.014,10.417-24.975,25.05q.339,126.972.237,253.947C2820.627-6171.634,2820.57-6171.013,2820.54-6170.392Z"
            fill="#48C4DE" />
    </g>
</svg>
