<svg width="22" height="23" viewBox="0 0 22 23" fill="none" xmlns="http://www.w3.org/2000/svg">
    <path
        d="M21.0854 11.1698V10.8995C21.0576 10.8857 21.0438 10.8649 21.0368 10.8718C20.4479 11.052 19.845 10.9965 19.2491 11.0035C18.7779 11.0035 18.3068 10.9896 17.8287 11.0104C16.9972 11.045 16.235 10.8857 15.5905 10.3105C15.2233 10.6154 14.8214 10.851 14.3572 10.9342C14.1285 10.9757 13.886 11.0035 13.6573 11.0035C11.9597 11.0104 10.262 11.0035 8.56441 11.0035C7.57354 11.0035 7.22708 10.8926 6.43023 10.3175C6.26393 10.4283 6.09763 10.5531 5.91748 10.6501C5.52252 10.8718 5.09984 10.9896 4.64945 10.9965C3.69322 11.0035 2.73008 11.0035 1.77385 10.9965C1.49669 10.9896 1.22645 10.9272 0.921571 10.8787V11.149C0.921571 14.3779 0.928501 17.6069 0.914642 20.8359C0.914642 21.4041 1.0948 21.806 1.6422 22.0069H3.65858C3.66551 21.9168 3.66551 21.8198 3.66551 21.7298C3.66551 19.1244 3.66551 16.5191 3.66551 13.9137C3.66551 13.7682 3.67244 13.6088 3.72094 13.4702C3.83181 13.0891 4.17133 12.8466 4.60094 12.8466C6.11842 12.8397 7.6359 12.8397 9.15338 12.8466C9.68693 12.8466 10.0542 13.2139 10.0888 13.7405C10.0957 13.8167 10.0888 13.8998 10.0888 13.9761C10.0888 16.5606 10.0888 19.1452 10.0888 21.7298C10.0888 21.8198 10.0957 21.9168 10.0957 22.0069H20.3647C20.9121 21.806 21.0923 21.4041 21.0923 20.8359C21.0784 17.6139 21.0854 14.3918 21.0854 11.1698ZM18.3345 16.429C18.3345 17.0457 17.9603 17.4129 17.3436 17.4198C15.8608 17.4198 14.3779 17.4198 12.902 17.4198C12.2992 17.4198 11.925 17.0457 11.9181 16.4428C11.9112 15.5698 11.9112 14.6967 11.9181 13.8236C11.9181 13.2208 12.2992 12.8466 12.902 12.8466C13.6435 12.8466 14.3918 12.8466 15.1332 12.8466C15.8677 12.8466 16.6091 12.8466 17.3436 12.8466C17.9603 12.8466 18.3345 13.2208 18.3345 13.8375C18.3414 14.6967 18.3414 15.5628 18.3345 16.429Z"
        fill="#343A40" />
    <path
        d="M22 7.35184V8.50901C21.9446 8.66838 21.9099 8.8416 21.8406 8.99404C21.508 9.70082 20.9329 10.0681 20.1569 10.0819C19.2491 10.0958 18.3414 10.0958 17.4268 10.0819C16.526 10.0681 15.8539 9.51373 15.6321 8.64066C15.6183 8.59216 15.6044 8.54365 15.5836 8.47436C15.4104 9.29893 14.96 9.82554 14.1632 10.0265C13.9761 10.075 13.782 10.0819 13.588 10.0819C11.8765 10.0888 10.165 10.0819 8.45354 10.0819C7.33795 10.0819 6.69354 9.58302 6.41638 8.47436C6.39559 8.54365 6.38173 8.59216 6.36787 8.64066C6.14614 9.5068 5.48787 10.0611 4.59402 10.075C3.67244 10.0958 2.74394 10.0958 1.82236 10.075C0.755276 10.0542 0.00692913 9.26428 0 8.20412C0 7.92696 0 7.64979 0 7.35184C0.0900787 7.34491 0.166299 7.34491 0.24252 7.34491C7.4211 7.34491 14.5997 7.34491 21.7852 7.34491C21.8545 7.33798 21.9307 7.34491 22 7.35184Z"
        fill="#343A40" />
    <path
        d="M14.4611 6.40243H7.53891C7.96852 4.26132 8.39119 2.14101 8.81387 0.00683594H13.1792C13.6088 2.13408 14.0315 4.26132 14.4611 6.40243Z"
        fill="#343A40" />
    <path
        d="M6.94992 0C6.52032 2.14803 6.09071 4.27528 5.66804 6.40252H0.242523C0.263311 6.3263 0.27024 6.25701 0.291027 6.19465C0.803783 4.38614 1.32347 2.58457 1.83622 0.776063C1.99559 0.228661 2.30048 0 2.86867 0C4.15748 0 5.4463 0 6.73512 0H6.94992Z"
        fill="#343A40" />
    <path
        d="M21.7644 6.40252H16.332C15.9093 4.2822 15.4797 2.15496 15.0501 0H15.2787C16.5606 0 17.8425 0 19.1244 0C19.7065 0 20.0044 0.221732 20.1707 0.782992C20.6835 2.58457 21.1962 4.37921 21.7159 6.18079C21.7228 6.25008 21.7367 6.31937 21.7644 6.40252Z"
        fill="#343A40" />
</svg>
