<svg xmlns="http://www.w3.org/2000/svg" width="387.945" height="230.802" viewBox="0 0 387.945 230.802">
    <g id="Group_8161" data-name="Group 8161" transform="translate(2657.995 -1376.379)">
        <path id="Path_2069" data-name="Path 2069"
            d="M-2276.615,1478.86c-17.93-18.35-34.38-38.74-54.61-54.14-70.19-53.46-146.24-63.85-227-24.8-39.032,18.867-68.957,48.463-95.919,81.426a16.959,16.959,0,0,0-3.851,10.732h0a16.865,16.865,0,0,0,3.92,10.811c4.8,5.749,9.571,11.526,14.55,17.111,44.99,50.45,98.73,85.05,168.25,87.08,85.3,2.48,147.18-40.98,197.49-105.14C-2267.215,1493.57-2270.045,1485.57-2276.615,1478.86Zm-187.65,94.71a82.136,82.136,0,0,1-81.24-83.99c.92-43.05,38.72-79.53,81.7-78.84a82.136,82.136,0,0,1,81.28,83.95C-2383.415,1537.56-2421.465,1574.29-2464.265,1573.57Z" />
        <path id="Path_2070" data-name="Path 2070"
            d="M-2420.575,1490.4a43.87,43.87,0,0,1-43.07,45.21c-24.07.52-43.25-18.13-43.8-42.58-.55-24.43,18.92-44.12,43.84-44.35A42.591,42.591,0,0,1-2420.575,1490.4Z" />
    </g>
</svg>
