<svg width="13" height="13" viewBox="0 0 13 13" fill="none" xmlns="http://www.w3.org/2000/svg">
    <g clip-path="url(#clip0_362:11868)">
        <path
            d="M12.0206 1.04184C11.9232 0.897392 11.7599 0.85343 11.606 0.800049H11.3201C11.2196 0.82831 11.116 0.856571 11.0155 0.891112C7.87143 1.93676 4.73052 2.98556 1.58647 4.03121C1.26923 4.13797 0.945721 4.23217 0.637912 4.35778C0.298694 4.49594 0.0725482 4.74715 0.0662664 5.1271C0.0599846 5.51019 0.232735 5.8085 0.584516 5.99063C1.96023 6.69715 3.33281 7.40681 4.70539 8.11961C4.77135 8.15416 4.84045 8.21696 4.875 8.28604C5.59741 9.68024 6.31668 11.0744 7.03594 12.4686C7.31548 13.0087 8.08501 13.0998 8.4682 12.6319C8.57185 12.5032 8.65351 12.3462 8.70691 12.1892C9.64604 9.39135 10.5789 6.58725 11.5117 3.78628C11.7442 3.09232 11.9703 2.39522 12.1996 1.70126V1.39353C12.1399 1.2742 12.0959 1.15174 12.0206 1.04184ZM4.89698 7.41623C3.59351 6.74111 2.29003 6.06913 0.986553 5.39715C0.958285 5.38145 0.923735 5.37517 0.904889 5.35319C0.857776 5.29353 0.791816 5.23073 0.785535 5.16478C0.782394 5.11768 0.854635 5.04232 0.911171 5.0172C1.09963 4.9387 1.29436 4.87589 1.4891 4.81309C4.52322 3.80198 7.55419 2.79087 10.5883 1.77976C10.6323 1.76406 10.6763 1.75464 10.7202 1.73894C10.7328 1.75464 10.7454 1.77034 10.7611 1.78604C10.7234 1.80802 10.6763 1.82058 10.648 1.85198C8.80428 3.69208 6.96056 5.53531 5.11999 7.38169C5.04147 7.45705 4.98807 7.46333 4.89698 7.41623ZM11.2228 2.39836C10.1643 5.57614 9.10266 8.75391 8.04418 11.9317C8.02533 11.9882 8.01277 12.0479 7.97822 12.095C7.94053 12.1452 7.88085 12.2143 7.83688 12.2112C7.77406 12.208 7.70182 12.1546 7.6547 12.1013C7.60131 12.0416 7.57618 11.9568 7.53849 11.8846C6.88518 10.6191 6.23501 9.35367 5.57856 8.08821C5.53459 8.00343 5.53773 7.95633 5.60683 7.88725C7.45683 6.04401 9.30682 4.19763 11.1537 2.34812C11.1819 2.31986 11.2102 2.29473 11.2636 2.24763C11.2448 2.31986 11.2353 2.36068 11.2228 2.39836Z"
            fill="white" />
    </g>
    <defs>
        <clipPath id="clip0_362:11868">
            <rect width="12.1333" height="12.1333" fill="white" transform="translate(0.0666504 0.800049)" />
        </clipPath>
    </defs>
</svg>
