<svg width="9" height="10" viewBox="0 0 9 10" fill="none" xmlns="http://www.w3.org/2000/svg">
    <g clip-path="url(#clip0_362:12407)">
        <path
            d="M6.97055 2.33145C6.77795 0.828058 5.46761 -0.213585 4.0505 0.0379993C3.07159 0.211746 2.3841 0.804151 2.05559 1.78769C1.72867 2.76623 1.91756 3.66582 2.56187 4.45505C2.64108 4.55179 2.7301 4.63963 2.82256 4.74055C2.79633 4.74722 2.77779 4.75222 2.75898 4.75639C1.36731 5.07581 0.308651 6.23115 0.0559093 7.69868C-0.0164162 8.11901 0.00371835 8.54211 0.00265864 8.96467C0.00133399 9.56875 0.413563 9.99853 0.990048 9.99992C1.39009 10.001 1.79013 10.0002 2.19018 10.0002C2.82812 10.0002 3.46634 10.0005 4.10429 9.99992C4.25953 9.99992 4.37557 9.92041 4.42485 9.78558C4.50777 9.55707 4.34749 9.33468 4.0974 9.3344C3.05941 9.33384 2.02115 9.3344 0.98316 9.33384C0.767508 9.33384 0.637958 9.19707 0.636898 8.97106C0.636103 8.74227 0.63107 8.5132 0.638488 8.28441C0.670544 7.2967 1.0629 6.50136 1.81901 5.91201C2.31708 5.52338 2.88455 5.3424 3.50502 5.3374C3.91142 5.33406 4.3202 5.35436 4.72369 5.31516C6.13152 5.17839 7.15918 3.80204 6.97055 2.33145ZM4.42697 4.6716C3.3903 4.66493 2.53829 3.76256 2.54147 2.67449C2.54491 1.56891 3.39931 0.672104 4.44525 0.676274C5.50867 0.680443 6.35327 1.57475 6.35035 2.69368C6.34717 3.7873 5.48086 4.678 4.42697 4.6716Z"
            fill="white" />
        <path
            d="M6.68148 5.33741C5.4448 5.33435 4.44734 6.37572 4.44522 7.67228C4.44337 8.93938 5.43976 9.99631 6.63856 9.99909C7.89856 10.0019 8.88621 8.97051 8.88886 7.64921C8.89151 6.39073 7.88849 5.34047 6.68148 5.33741ZM6.66347 9.33302C5.78576 9.33052 5.0792 8.58299 5.08052 7.65894C5.08185 6.74239 5.79927 6.0007 6.68122 6.00348C7.54435 6.00654 8.25674 6.7599 8.25436 7.66756C8.25197 8.5905 7.54038 9.33524 6.66347 9.33302Z"
            fill="white" />
        <path
            d="M7.4072 7.5648C7.52105 7.5407 7.56817 7.40314 7.50283 7.31054L7.50283 7.31054L7.50251 7.3101C7.494 7.2983 7.48484 7.28811 7.47645 7.2793C7.39467 7.19349 7.31287 7.10756 7.23103 7.02161C7.10828 6.89266 6.98546 6.76365 6.86258 6.63489C6.82784 6.59843 6.78576 6.57354 6.73749 6.57354C6.68924 6.57354 6.64711 6.59842 6.61226 6.63483L6.61218 6.63491C6.40607 6.85118 6.20019 7.06721 5.99432 7.28379L6.03056 7.31824M7.4072 7.5648C7.34059 7.57902 7.29062 7.54784 7.25464 7.51008L7.2546 7.51005L7.04097 7.28574L6.89283 7.1302V8.68764C6.89283 8.70229 6.89268 8.72211 6.88867 8.742L6.88858 8.74245L6.88858 8.74245C6.88139 8.77649 6.86558 8.80429 6.84263 8.82554C6.82028 8.84625 6.79345 8.85864 6.76693 8.86632L6.75302 8.87035V8.86829H6.72017H6.71102L6.70245 8.86505C6.70125 8.86459 6.69962 8.86401 6.69768 8.86331C6.69047 8.86073 6.67904 8.85663 6.66969 8.85201L6.66902 8.85168L6.66902 8.85167C6.63746 8.8355 6.61397 8.81229 6.59903 8.78288C6.5845 8.75428 6.57956 8.72283 6.57956 8.69181V8.69178C6.57981 8.17125 6.57983 7.65072 6.57983 7.13042L6.22313 7.50612L6.22306 7.50619C6.21456 7.5151 6.20409 7.52553 6.19258 7.53478M7.4072 7.5648C7.40718 7.56481 7.40716 7.56481 7.40714 7.56481L7.3968 7.51589L7.40725 7.56479C7.40724 7.56479 7.40722 7.5648 7.4072 7.5648ZM6.19258 7.53478C6.13575 7.58087 6.05493 7.57829 6.00032 7.53177M6.19258 7.53478C6.19254 7.53481 6.1925 7.53484 6.19246 7.53488L6.16117 7.49588L6.1927 7.53468C6.19266 7.53471 6.19262 7.53474 6.19258 7.53478ZM6.00032 7.53177C5.96275 7.5 5.94188 7.45671 5.94128 7.41034C5.9407 7.36436 5.96003 7.31978 5.99436 7.28375L6.03056 7.31824M6.00032 7.53177C6.00029 7.53175 6.00026 7.53172 6.00023 7.5317L6.03268 7.49366M6.00032 7.53177C6.00035 7.5318 6.00038 7.53183 6.00041 7.53185L6.03268 7.49366M6.03056 7.31824C6.23641 7.10168 6.44226 6.88568 6.64837 6.6694L6.03268 7.49366M6.03056 7.31824C5.97731 7.37412 5.97837 7.44779 6.03268 7.49366"
            fill="white" stroke="white" stroke-width="0.1" />
    </g>
    <defs>
        <clipPath id="clip0_362:12407">
            <rect width="8.88889" height="10" fill="white" />
        </clipPath>
    </defs>
</svg>
