<svg width="22" height="22" viewBox="0 0 22 22" fill="none" xmlns="http://www.w3.org/2000/svg">
    <path
        d="M21.9984 9.80247C21.9973 9.38975 21.8208 9.16644 21.42 9.06582C20.6711 8.87856 19.9217 8.69184 19.1706 8.5132C19.0372 8.48145 18.9678 8.4201 18.9189 8.29204C18.7854 7.94551 18.6413 7.60274 18.4874 7.26482C18.4282 7.13513 18.4234 7.03774 18.5019 6.91021C18.8446 6.35705 19.176 5.79636 19.5096 5.23728C19.7533 4.8294 19.7226 4.57542 19.3885 4.24019C18.8425 3.69294 18.2959 3.1457 17.7482 2.60007C17.4211 2.27399 17.1666 2.24224 16.769 2.47846C16.203 2.81477 15.637 3.15001 15.0764 3.49492C14.9575 3.56811 14.8655 3.5708 14.7413 3.5143C14.4029 3.36148 14.0607 3.21565 13.7137 3.08436C13.5765 3.03163 13.5173 2.95683 13.484 2.81477C13.3086 2.07005 13.1219 1.32802 12.9363 0.585985C12.833 0.174881 12.6108 0.00215238 12.1831 0.00161428C11.3954 -0.000538095 10.6073 -0.000538095 9.81962 0.00161428C9.38223 0.00215238 9.16756 0.173266 9.0605 0.60428C8.87543 1.34685 8.68928 2.08888 8.51335 2.83307C8.48107 2.96921 8.41436 3.03324 8.28901 3.08274C7.91725 3.23018 7.54818 3.38462 7.18556 3.55196C7.05375 3.61277 6.95799 3.61546 6.83156 3.5369C6.25966 3.18337 5.68077 2.84114 5.10349 2.49568C4.67201 2.2374 4.42561 2.26699 4.07214 2.61998C3.53468 3.15593 2.99775 3.69294 2.4619 4.2305C2.1235 4.5695 2.09122 4.83478 2.33708 5.24696C2.70023 5.85501 3.06285 6.46306 3.43138 7.06787C3.49755 7.17657 3.50509 7.26213 3.45021 7.38158C3.31356 7.68022 3.19036 7.98532 3.07845 8.29419C3.03057 8.42602 2.95579 8.48091 2.82451 8.51266C2.10144 8.68485 1.38213 8.87372 0.657977 9.0416C0.340556 9.11532 0.111367 9.27083 0 9.58239V12.4181C0.111367 12.7297 0.340018 12.8852 0.656901 12.9584C1.38751 13.1274 2.11327 13.3168 2.84281 13.49C2.97031 13.5202 3.03164 13.5815 3.07845 13.701C3.22479 14.0728 3.39103 14.4365 3.53468 14.8089C3.56427 14.8858 3.5605 15.0053 3.52015 15.0747C3.20542 15.6193 2.87724 16.1558 2.55444 16.696C2.30803 17.1093 2.34031 17.3675 2.6814 17.7098C3.2221 18.2516 3.76333 18.793 4.3051 19.3332C4.63597 19.6631 4.90174 19.6964 5.30309 19.457C5.83733 19.139 6.3721 18.8215 6.9015 18.4954C7.01717 18.4238 7.10755 18.4158 7.23398 18.4739C7.57723 18.6321 7.92639 18.7779 8.27878 18.914C8.41275 18.9657 8.48161 19.0324 8.5155 19.1777C8.68444 19.9009 8.87435 20.6192 9.04167 21.343C9.11484 21.6599 9.27032 21.8886 9.58183 22H12.4176C12.7297 21.8886 12.8846 21.6594 12.9578 21.3419C13.1267 20.6106 13.3086 19.8826 13.4979 19.1562C13.52 19.0711 13.6066 18.9759 13.6879 18.9382C14.0634 18.7634 14.4448 18.6019 14.83 18.4507C14.9064 18.4206 15.0269 18.4276 15.0974 18.4685C15.6543 18.7913 16.2036 19.1271 16.7566 19.457C17.1585 19.697 17.4259 19.6647 17.7568 19.3348C18.3045 18.7887 18.8511 18.2419 19.3966 17.6931C19.7216 17.3659 19.7517 17.1109 19.515 16.7132C19.1814 16.1541 18.8489 15.594 18.5078 15.0397C18.439 14.9278 18.4411 14.8423 18.4933 14.726C18.6461 14.3876 18.7897 14.0448 18.9237 13.6983C18.97 13.5772 19.0351 13.5196 19.161 13.4895C19.912 13.3103 20.6609 13.1236 21.4103 12.9369C21.8246 12.833 21.9973 12.6135 21.9984 12.1868C22.0005 11.392 22.0011 10.5972 21.9984 9.80247ZM11.0075 15.5111C8.53003 15.5181 6.49584 13.4906 6.48885 11.0083C6.48239 8.53041 8.50959 6.49642 10.9919 6.48942C13.4694 6.48296 15.5036 8.50997 15.5106 10.9927C15.5171 13.4701 13.4899 15.5047 11.0075 15.5111Z"
        fill="#FAF8FF" />
</svg>
