<svg width="24" height="22" viewBox="0 0 24 22" fill="none" xmlns="http://www.w3.org/2000/svg">
    <path
        d="M21.7224 19.7434C21.7114 20.5132 21.1871 20.9989 20.3937 21.0002C14.3725 21.003 8.35131 21.003 2.33011 20.9934C2.08451 20.9934 1.82098 20.9111 1.59471 20.8054C1.25805 20.6476 1.11042 20.3211 0.998657 19.9835V5.88107C1.31324 5.07153 1.63334 4.85474 2.51362 4.85474C8.45617 4.85474 14.3987 4.85474 20.3413 4.85474C21.2326 4.85474 21.7238 5.34046 21.7265 6.22547C21.7279 7.21475 21.7265 8.20403 21.7265 9.19469C21.7265 9.27016 21.7196 9.34425 21.7155 9.43344H21.4589C19.1326 9.43344 16.805 9.43069 14.4774 9.43481C13.2356 9.43618 12.3208 10.3184 12.3029 11.5437C12.2877 12.4617 12.2836 13.381 12.3112 14.2989C12.3194 14.5884 12.3981 14.8971 12.525 15.1578C12.9196 15.9646 13.6067 16.3433 14.4994 16.3461C16.8188 16.3502 19.1395 16.3475 21.4589 16.3475H21.71C21.7183 16.4023 21.7252 16.4298 21.7252 16.4572C21.7265 17.5508 21.739 18.6471 21.7224 19.7434Z"
        fill="#FAF8FF" />
    <path
        d="M23.0001 11.6563C23.0001 10.7919 22.4951 10.287 21.6286 10.287C20.4544 10.2856 19.2803 10.287 18.1047 10.287C16.9085 10.287 15.7123 10.2856 14.5174 10.287C13.6799 10.2884 13.1653 10.8002 13.1639 11.633C13.1625 12.4659 13.1625 13.3001 13.1639 14.133C13.1653 14.9672 13.6744 15.479 14.516 15.4804C16.8933 15.4845 19.2706 15.4845 21.6493 15.4804C22.4923 15.479 23.0001 14.9686 23.0014 14.1344C23.0014 13.3084 23.0001 12.4823 23.0001 11.6563ZM16.9816 13.1245C16.9568 13.4867 16.714 13.7282 16.3483 13.7419C16.2849 13.7447 16.22 13.7419 16.1552 13.7419C15.537 13.7419 15.3383 13.543 15.3452 12.9269C15.3452 12.835 15.337 12.7417 15.3466 12.6511C15.3742 12.3753 15.5743 12.1517 15.8516 12.1242C16.6284 12.0488 17.0506 12.1366 16.9816 13.1245Z"
        fill="#FAF8FF" />
    <path
        d="M19.2085 3.98894H9.10462C9.10186 3.98071 9.10048 3.97248 9.09772 3.96424C9.18188 3.9368 9.26605 3.90661 9.35159 3.88329C11.9648 3.17391 14.5767 2.46591 17.1899 1.75653C18.0053 1.53562 18.6221 1.88139 18.8511 2.69093C18.9725 3.11491 19.0857 3.54026 19.2085 3.98894Z"
        fill="#FAF8FF" />
    <path
        d="M14.9037 1.60022C14.8154 1.63041 14.7451 1.65785 14.6705 1.67843C11.8779 2.4372 9.08949 3.20558 6.29137 3.94102C5.89676 4.0453 5.46214 3.99316 5.04546 4.01375C5.04132 3.99454 5.03718 3.97533 5.03442 3.95475C5.09375 3.92319 5.1517 3.88888 5.21241 3.8587C7.69733 2.63341 10.1822 1.40813 12.6672 0.184213C13.4481 -0.201347 14.1159 0.0250494 14.505 0.800286C14.6374 1.06236 14.7657 1.32306 14.9037 1.60022Z"
        fill="#FAF8FF" />
</svg>
